<?xml version="1.0" standalone="no"?>
<!DOCTYPE svg PUBLIC "-//W3C//DTD SVG 20010904//EN"
 "http://www.w3.org/TR/2001/REC-SVG-20010904/DTD/svg10.dtd">
<svg version="1.0" xmlns="http://www.w3.org/2000/svg"
 width="684.000000pt" height="684.000000pt" viewBox="0 0 684.000000 684.000000"
 preserveAspectRatio="xMidYMid meet">
<metadata>
Created by potrace 1.11, written by Peter Selinger 2001-2013
</metadata>
<g transform="translate(0.000000,684.000000) scale(0.100000,-0.100000)"
fill="#000000" stroke="none">
<path d="M3298 6625 c-1 -2 -39 -6 -83 -10 -88 -8 -90 -8 -155 -19 -25 -4 -58
-10 -75 -12 -172 -28 -438 -105 -605 -176 -25 -10 -54 -23 -65 -28 -154 -65
-501 -262 -513 -292 -2 -5 -10 -8 -18 -8 -8 0 -14 -4 -14 -8 0 -4 -12 -15 -27
-24 -16 -9 -38 -25 -50 -35 -11 -10 -60 -49 -106 -88 -47 -38 -88 -75 -91 -82
-3 -8 40 -10 172 -7 97 2 272 6 387 9 l210 4 97 51 c198 104 501 207 688 235
25 4 59 9 75 12 62 10 82 13 170 20 50 4 158 6 240 6 138 -1 176 -4 275 -17
19 -2 57 -7 84 -11 48 -6 108 -18 156 -30 14 -3 34 -8 45 -10 66 -13 232 -65
315 -98 14 -6 27 -11 30 -12 26 -8 114 -49 205 -95 l110 -56 195 2 c107 2 276
3 375 4 l180 2 -40 34 c-22 19 -51 45 -65 58 -81 73 -314 233 -442 304 -237
132 -560 259 -763 302 -116 24 -153 31 -185 36 -19 3 -46 7 -60 10 -14 2 -41
7 -60 9 -19 3 -55 7 -80 11 -49 6 -506 15 -512 9z"/>
<path d="M252 5521 c11 -20 31 -56 45 -81 13 -25 36 -65 50 -90 13 -25 32 -58
42 -75 10 -16 31 -55 48 -85 16 -30 53 -97 82 -149 29 -51 57 -103 64 -115 7
-11 14 -23 17 -26 3 -3 18 -30 34 -60 16 -30 83 -152 149 -270 66 -118 128
-228 137 -245 9 -16 29 -51 43 -77 167 -298 207 -371 207 -379 0 -5 3 -9 8 -9
4 0 12 -10 18 -23 5 -12 24 -47 41 -77 17 -30 44 -80 61 -110 l31 -55 615 -1
c339 -1 619 -3 621 -6 3 -3 4 -216 3 -474 l-3 -469 -37 60 c-20 33 -41 65 -46
70 -4 6 -11 17 -14 25 -4 8 -62 103 -130 210 l-123 195 -333 2 c-182 1 -332 0
-332 -2 0 -2 18 -34 40 -73 22 -38 40 -74 40 -81 0 -6 4 -11 9 -11 5 0 14 -12
20 -27 6 -16 20 -44 32 -63 12 -19 66 -116 122 -215 55 -99 109 -196 120 -215
62 -110 257 -457 297 -530 26 -47 150 -267 275 -490 125 -223 239 -425 253
-450 13 -25 32 -58 42 -75 10 -16 29 -50 42 -75 35 -64 283 -504 377 -670 18
-30 39 -70 48 -87 9 -18 20 -33 23 -33 4 0 7 926 7 2058 l0 2057 -809 5 -809
5 -63 120 c-35 67 -81 154 -102 195 -21 41 -43 78 -49 82 -5 4 -6 8 -2 8 5 0
0 12 -10 28 -11 15 -43 73 -71 130 l-53 102 38 1 c69 2 108 1 118 -1 6 -1 15
-2 20 0 14 2 208 3 220 0 6 -1 15 -2 20 -1 15 3 368 3 380 1 6 -1 15 -2 20 0
14 2 208 3 220 0 6 -1 15 -1 20 0 26 5 167 1 173 -4 3 -4 6 -73 7 -154 l0
-147 366 -3 366 -2 -1 482 -1 483 -1531 1 -1532 0 20 -35z"/>
<path d="M3530 5535 c-1 -35 -1 -1836 -1 -1905 l1 -65 617 1 c340 1 622 -1
626 -3 4 -3 4 -10 -1 -16 -5 -7 -44 -79 -87 -162 -43 -82 -95 -181 -115 -220
-20 -38 -54 -104 -76 -145 -21 -41 -43 -78 -49 -82 -5 -4 -6 -8 -1 -8 5 0 4
-6 -1 -12 -9 -11 -108 -196 -164 -308 -10 -19 -19 -28 -19 -20 -1 8 -2 146 -3
305 l-2 290 -115 2 c-615 11 -610 11 -611 -11 -2 -95 1 -3070 4 -3072 2 -2 10
8 18 24 7 15 33 60 56 100 24 41 43 75 43 77 0 2 20 38 45 79 25 42 45 79 45
81 0 3 18 34 40 70 22 36 40 70 40 75 0 6 4 10 10 10 5 0 9 3 8 8 -2 4 28 60
65 124 37 65 67 122 67 128 0 5 4 10 8 10 5 0 24 30 43 66 19 36 41 77 49 92
9 15 42 74 75 132 33 58 68 119 78 135 10 17 23 42 30 58 6 15 15 27 19 27 4
0 8 4 8 9 0 5 23 49 51 98 28 48 70 122 92 163 22 41 43 77 47 80 3 3 12 20
19 38 8 17 17 32 22 32 5 0 9 5 9 11 0 6 38 77 84 157 46 81 96 170 111 197
15 28 51 91 80 140 29 50 113 198 188 330 74 132 144 256 155 275 12 19 31 55
44 80 13 25 26 47 31 48 4 2 7 7 7 11 0 4 50 94 110 200 61 106 110 197 110
202 0 5 5 9 10 9 6 0 10 5 10 10 0 10 21 49 128 234 29 49 52 90 52 92 0 1 32
57 70 124 39 67 70 126 70 131 0 5 4 9 8 9 4 0 13 12 19 28 7 15 21 42 32 61
11 19 18 37 16 39 -3 3 -361 6 -797 6 l-793 1 0 350 0 350 613 0 c356 1 612
-3 612 -8 0 -5 -13 -37 -29 -71 -86 -180 -111 -238 -107 -244 4 -7 703 -9 709
-1 6 7 243 430 267 477 12 23 26 45 31 48 5 3 7 10 4 15 -4 5 -3 9 2 9 4 0 14
15 22 33 8 17 17 34 21 37 8 6 190 335 190 343 0 2 -691 3 -1535 3 l-1535 0 0
-21z"/>
<path d="M6245 4418 c-44 -72 -88 -143 -97 -160 -9 -16 -23 -37 -32 -47 -9
-10 -16 -20 -16 -24 0 -7 -62 -110 -71 -117 -3 -3 -11 -14 -17 -25 -10 -21
-10 -27 4 -155 11 -95 11 -419 0 -525 -7 -69 -17 -137 -41 -270 -3 -16 -8 -38
-11 -47 -3 -9 -6 -25 -8 -35 -2 -10 -11 -43 -20 -73 -9 -30 -16 -58 -17 -62
-1 -12 -65 -187 -92 -253 -78 -186 -216 -421 -335 -570 -172 -216 -374 -404
-577 -540 -50 -33 -92 -62 -95 -66 -6 -7 -63 -37 -215 -114 -91 -46 -124 -68
-136 -90 -8 -17 -28 -55 -44 -85 -16 -30 -29 -57 -30 -60 0 -3 -12 -25 -25
-50 -99 -189 -169 -335 -160 -338 10 -4 270 71 305 88 11 5 44 19 74 30 138
53 291 129 440 218 69 41 130 79 135 83 6 5 52 39 101 75 439 323 790 774 990
1269 20 50 40 99 45 110 23 51 88 268 96 320 1 11 7 35 13 53 5 18 10 35 10
37 1 15 13 82 18 95 3 8 6 31 8 50 2 19 6 49 9 65 36 197 37 631 1 830 -1 11
-6 45 -10 75 -8 60 -13 85 -15 85 -1 0 -3 12 -5 26 -2 15 -18 82 -35 150 -18
68 -34 134 -37 146 -3 12 -10 24 -17 26 -6 2 -47 -54 -91 -125z"/>
<path d="M622 4383 c-10 -25 -29 -107 -37 -158 -2 -11 -8 -43 -14 -72 -6 -29
-13 -74 -16 -100 -4 -26 -8 -59 -11 -73 -8 -51 -18 -238 -18 -355 0 -171 11
-319 34 -460 6 -33 12 -71 14 -85 2 -14 7 -36 10 -50 3 -14 8 -36 10 -50 4
-23 51 -201 59 -225 2 -5 7 -23 11 -40 4 -16 11 -39 16 -50 5 -11 20 -51 33
-90 49 -138 184 -419 246 -509 17 -24 31 -47 31 -51 0 -8 43 -69 53 -73 4 -2
7 -8 7 -13 0 -6 13 -27 28 -47 16 -20 45 -59 65 -86 349 -465 886 -848 1443
-1026 52 -16 97 -30 100 -30 3 0 -3 15 -14 33 -11 17 -31 52 -44 77 -14 25
-58 104 -98 175 -40 72 -87 157 -106 191 -80 146 -78 144 -156 188 -201 115
-364 240 -533 410 -138 139 -154 157 -225 251 -25 33 -48 62 -51 65 -8 8 -69
98 -69 103 0 3 -18 31 -39 63 -43 66 -130 237 -184 364 -53 124 -125 367 -143
485 -6 40 -12 70 -14 70 -1 0 -3 11 -4 25 -1 14 -6 54 -10 90 -14 119 -21 364
-12 449 2 20 -20 68 -69 149 -6 9 -37 62 -69 117 -33 55 -86 145 -119 199 -32
55 -67 115 -77 133 l-18 33 -10 -27z"/>
</g>
</svg>
