<?xml version="1.0" encoding="UTF-8" standalone="no"?>
<!-- Generator: Adobe Illustrator 16.0.0, SVG Export Plug-In . SVG Version: 6.00 Build 0)  -->

<svg
   xmlns:dc="http://purl.org/dc/elements/1.1/"
   xmlns:cc="http://creativecommons.org/ns#"
   xmlns:rdf="http://www.w3.org/1999/02/22-rdf-syntax-ns#"
   xmlns:svg="http://www.w3.org/2000/svg"
   xmlns="http://www.w3.org/2000/svg"
   xmlns:xlink="http://www.w3.org/1999/xlink"
   xmlns:sodipodi="http://sodipodi.sourceforge.net/DTD/sodipodi-0.dtd"
   xmlns:inkscape="http://www.inkscape.org/namespaces/inkscape"
   version="1.1"
   x="0px"
   y="0px"
   width="163px"
   height="170.5px"
   viewBox="0 0 163 170.5"
   enable-background="new 0 0 163 170.5"
   xml:space="preserve"
   id="svg879"
   sodipodi:docname="logo.svg"
   inkscape:version="0.92.5 (2060ec1f9f, 2020-04-08)"><metadata
   id="metadata885"><rdf:RDF><cc:Work
       rdf:about=""><dc:format>image/svg+xml</dc:format><dc:type
         rdf:resource="http://purl.org/dc/dcmitype/StillImage" /><dc:title></dc:title></cc:Work></rdf:RDF></metadata><defs
   id="defs883"><linearGradient
     inkscape:collect="always"
     id="linearGradient915"><stop
       style="stop-color:#757576;stop-opacity:1;"
       offset="0"
       id="stop911" /><stop
       style="stop-color:#757576;stop-opacity:0;"
       offset="1"
       id="stop913" /></linearGradient><linearGradient
     inkscape:collect="always"
     id="linearGradient891"><stop
       style="stop-color:#4e9eff;stop-opacity:1;"
       offset="0"
       id="stop887" /><stop
       style="stop-color:#4e9eff;stop-opacity:0;"
       offset="1"
       id="stop889" /></linearGradient><linearGradient
     inkscape:collect="always"
     xlink:href="#linearGradient891"
     id="linearGradient893"
     x1="2.0436898"
     y1="100.14322"
     x2="78.445"
     y2="100.14322"
     gradientUnits="userSpaceOnUse" /><linearGradient
     inkscape:collect="always"
     xlink:href="#linearGradient891"
     id="linearGradient909"
     x1="2.0436897"
     y1="100.14322"
     x2="78.445"
     y2="100.14322"
     gradientUnits="userSpaceOnUse" /><linearGradient
     inkscape:collect="always"
     xlink:href="#linearGradient915"
     id="linearGradient917"
     x1="84.187"
     y1="100.13516"
     x2="160.89102"
     y2="100.13516"
     gradientUnits="userSpaceOnUse" /><linearGradient
     inkscape:collect="always"
     xlink:href="#linearGradient915"
     id="linearGradient925"
     x1="84.186996"
     y1="100.13516"
     x2="160.89102"
     y2="100.13516"
     gradientUnits="userSpaceOnUse" /><linearGradient
     inkscape:collect="always"
     xlink:href="#linearGradient915"
     id="linearGradient933"
     x1="9.3360004"
     y1="79.085999"
     x2="157.853"
     y2="79.085999"
     gradientUnits="userSpaceOnUse" /></defs><sodipodi:namedview
   pagecolor="#ffffff"
   bordercolor="#666666"
   borderopacity="1"
   objecttolerance="10"
   gridtolerance="10"
   guidetolerance="10"
   inkscape:pageopacity="0"
   inkscape:pageshadow="2"
   inkscape:window-width="1920"
   inkscape:window-height="1017"
   id="namedview881"
   showgrid="false"
   inkscape:zoom="4.8211144"
   inkscape:cx="81.5"
   inkscape:cy="85.25"
   inkscape:window-x="0"
   inkscape:window-y="32"
   inkscape:window-maximized="1"
   inkscape:current-layer="svg879" />
<g
   id="cercle"
   style="fill-opacity:1;fill:#757576">
	<path
   d="M100.795,152.931c32.718-7.821,57.058-37.463,57.058-72.836c0-8.141-1.289-15.979-3.673-23.317l-8.384,13.51   c0.493,3.221,0.741,6.495,0.741,9.807c0,8.594-1.667,16.924-4.954,24.758c-1.58,3.765-3.535,7.396-5.812,10.793   c-2.256,3.366-4.847,6.532-7.701,9.408c-2.852,2.876-5.99,5.485-9.326,7.757c-3.363,2.291-6.958,4.258-10.683,5.846   L100.795,152.931z M54.623,136.518c-2.125-1.115-4.191-2.354-6.177-3.707c-3.336-2.271-6.474-4.881-9.326-7.757   c-2.854-2.876-5.445-6.042-7.701-9.408c-2.277-3.397-4.232-7.028-5.812-10.793c-3.288-7.834-4.954-16.164-4.954-24.758   c0-1.527,0.053-3.045,0.158-4.554l-8.906-15.037c-1.675,6.245-2.569,12.813-2.569,19.591c0,34.264,22.838,63.151,54.007,72.037   L54.623,136.518z M83.595,16.558c8.491,0,16.722,1.674,24.466,4.976c2.247,0.958,4.445,2.053,6.574,3.274l18.839-0.167   c-13.182-12.055-30.68-19.4-49.879-19.4l0,0c-19.46,0-37.171,7.545-50.413,19.892l19.563-0.433c2.07-1.177,4.204-2.236,6.384-3.165   C66.872,18.232,75.104,16.558,83.595,16.558"
   id="path870"
   style="fill-opacity:1;fill:#757576" />
</g>
<g
   id="s_rouge"
   style="fill:#4e9eff;fill-opacity:1;stroke:#4e9eff;stroke-opacity:1">
	<polygon
   fill="#ED2124"
   points="60.672,47.841 60.672,55.584 77.945,55.584 77.945,32.503 2.896,32.503 29.699,80.452    60.821,80.452 60.821,106.511 51.142,91.024 35.656,91.024 77.945,166.371 77.945,65.561 37.889,65.561 28.508,47.841  "
   id="polygon873"
   style="fill:#4e9eff;fill-opacity:1;stroke:#4e9eff;stroke-opacity:1" />
</g>
<g
   id="s_noir"
   style="stroke:#757576;stroke-opacity:1;fill:#757576;fill-opacity:1">
	<polyline
   points="133.829,47.929 130.254,55.673 147.032,55.673 160.037,32.503 84.687,32.503 84.687,81.087 116.256,81.087    101.861,108.488 101.961,91.61 84.687,91.313 84.687,166.371 141.572,65.998 102.06,65.998 102.06,47.929  "
   id="polyline876"
   style="stroke:#757576;stroke-opacity:1;fill:#757576;fill-opacity:1" />
</g>
</svg>